<svg xmlns="http://www.w3.org/2000/svg" xmlns:xlink="http://www.w3.org/1999/xlink" width="259" height="201.645" viewBox="0 0 259 201.645"><defs><clipPath id="a"><rect width="74" height="101" transform="translate(315 178.5)" fill="none"/></clipPath><clipPath id="b"><path d="M235.572,283.369s-64.6-20.652-129.735,1.059,0,34.684,0,34.684l145.886-3.442V299.784Z" transform="translate(-76.889 -274.496)" fill="#fff" stroke="#707070" stroke-width="1"/></clipPath></defs><g transform="translate(0 0.645)"><g transform="translate(0 2)" fill="none" stroke="#512da8" stroke-width="15"><circle cx="99.5" cy="99.5" r="99.5" stroke="none"/><circle cx="99.5" cy="99.5" r="92" fill="none"/></g><g transform="translate(-130 -122.5)" clip-path="url(#a)"><path d="M219.667,293H325.589s9.428,8.041,9.15,21.309c.277,5.629-2.134,13.023-9.15,18.9H219.667Z" transform="translate(40.239 -91.361)" fill="#512da8"/></g><circle cx="90.5" cy="90.5" r="90.5" transform="translate(11 4)" fill="#512da8"/><g transform="translate(-69 -203)"><g transform="translate(71 203)"><circle cx="25.16" cy="25.16" r="25.16" transform="translate(0 56.616)" fill="#965a50" stroke="#707070" stroke-width="1"/><circle cx="15.726" cy="15.726" r="15.726" transform="translate(9.434 66.049)" fill="#ebc9a0" stroke="#707070" stroke-width="1"/><circle cx="25.16" cy="25.16" r="25.16" transform="translate(144.681 56.616)" fill="#965a50" stroke="#707070" stroke-width="1"/><circle cx="15.726" cy="15.726" r="15.726" transform="translate(154.115 66.049)" fill="#ebc9a0" stroke="#707070" stroke-width="1"/><path d="M199.242,104.917a36,36,0,0,1-5.016-18.03h0a66.047,66.047,0,0,0-40.887-61.059V14.548l-15.726,6.29L134.468,8.258c-8.3,2.765-15.372,8.569-20.7,14.205A66.04,66.04,0,0,0,62.13,86.887a36,36,0,0,1-5.016,18.03,54.682,54.682,0,0,0-7.565,27.575c0,35.609,35.2,64.476,78.629,64.476s78.629-28.867,78.629-64.476A54.691,54.691,0,0,0,199.242,104.917Z" transform="translate(-30.678 -8.258)" fill="#af6e5a" stroke="#707070" stroke-width="1"/><path d="M84.146,143.762a72.053,72.053,0,0,1,7.565-32.171,47.408,47.408,0,0,0,5.016-21.035c0-32.006,16.746-59.4,40.559-71.031L134.468,8.258c-8.3,2.765-15.372,8.569-20.7,14.205A66.04,66.04,0,0,0,62.13,86.887a36,36,0,0,1-5.016,18.03,54.682,54.682,0,0,0-7.565,27.575c0,28.742,22.94,53.08,54.621,61.4A73.129,73.129,0,0,1,84.146,143.762Z" transform="translate(-30.678 -8.258)" fill="#965a50" stroke="#707070" stroke-width="1"/><path d="M169.08,286.645c26.055,0,47.177-16.9,47.177-37.742a30.719,30.719,0,0,0-2.6-12.335,15.97,15.97,0,0,1,2.312-16.716A28.29,28.29,0,0,0,175.207,180.8a9.164,9.164,0,0,1-12.255,0,28.29,28.29,0,0,0-40.759,39.057,15.97,15.97,0,0,1,2.312,16.716,30.728,30.728,0,0,0-2.6,12.335C121.9,269.747,143.024,286.645,169.08,286.645Z" transform="translate(-71.58 -110.516)" fill="#faebc8" stroke="#707070" stroke-width="1"/><path d="M121.9,249.425a32.093,32.093,0,0,0,6.674,19.281,71.855,71.855,0,0,1,4.036-54.335,47.408,47.408,0,0,0,5.016-21.035,89.088,89.088,0,0,1,2.083-19.073c-.112.016-.222.015-.335.033a28.291,28.291,0,0,0-17.182,46.079,15.97,15.97,0,0,1,2.312,16.716A30.725,30.725,0,0,0,121.9,249.425Z" transform="translate(-71.58 -111.038)" fill="#f5dcb4" stroke="#707070" stroke-width="1"/><g transform="translate(81.773 113.225)"><path d="M224.141,314.982a3.126,3.126,0,0,1-1.4-.332l-6.29-3.145a3.146,3.146,0,0,1,2.813-5.627l6.29,3.145a3.145,3.145,0,0,1-1.41,5.959Z" transform="translate(-214.707 -305.545)" fill="#5d5360" stroke="#707070" stroke-width="1"/><path d="M267.4,314.982a3.145,3.145,0,0,1-1.41-5.959l6.29-3.145a3.146,3.146,0,0,1,2.813,5.627l-6.29,3.145A3.133,3.133,0,0,1,267.4,314.982Z" transform="translate(-245.384 -305.545)" fill="#5d5360" stroke="#707070" stroke-width="1"/></g><path d="M177.163,363.355a3.165,3.165,0,0,0-3.141,3.574c1.952,13.946,15.178,24.732,31.2,24.732s29.251-10.786,31.2-24.732a3.165,3.165,0,0,0-3.141-3.574Z" transform="translate(-107.725 -228.113)" fill="#4b3f4e" stroke="#707070" stroke-width="1"/><path d="M208.417,401.805a34.209,34.209,0,0,0,36.245,0,18.845,18.845,0,0,0-36.245,0Z" transform="translate(-129.039 -243.452)" fill="#e6646e" stroke="#707070" stroke-width="1"/><path d="M166.338,236.726h0a9.436,9.436,0,0,1-9.435-9.435v-3.145a9.436,9.436,0,0,1,9.435-9.435h0a9.436,9.436,0,0,1,9.435,9.435v3.145A9.435,9.435,0,0,1,166.338,236.726Z" transform="translate(-97.145 -136.081)" fill="#4b3f4e" stroke="#707070" stroke-width="1"/><path d="M181.677,214.71v11.008a4.718,4.718,0,1,0,9.435,0v-1.573A9.435,9.435,0,0,0,181.677,214.71Z" transform="translate(-112.484 -136.081)" fill="#5d5360" stroke="#707070" stroke-width="1"/><circle cx="3.145" cy="3.145" r="3.145" transform="translate(66.049 81.776)" fill="#fff" stroke="#707070" stroke-width="1"/><path d="M314.984,236.726h0a9.436,9.436,0,0,1-9.435-9.435v-3.145a9.436,9.436,0,0,1,9.435-9.435h0a9.436,9.436,0,0,1,9.435,9.435v3.145A9.436,9.436,0,0,1,314.984,236.726Z" transform="translate(-189.178 -136.081)" fill="#4b3f4e" stroke="#707070" stroke-width="1"/><path d="M330.323,214.71v11.008a4.718,4.718,0,1,0,9.435,0v-1.573A9.435,9.435,0,0,0,330.323,214.71Z" transform="translate(-204.516 -136.081)" fill="#5d5360" stroke="#707070" stroke-width="1"/><circle cx="3.145" cy="3.145" r="3.145" transform="translate(122.66 81.776)" fill="#fff" stroke="#707070" stroke-width="1"/><path d="M250.887,422.338c1.063,0,2.109-.064,3.145-.158v-6.132a3.145,3.145,0,1,0-6.29,0v6.132C248.778,422.274,249.824,422.338,250.887,422.338Z" transform="translate(-153.387 -258.79)" fill="#ff8087" stroke="#707070" stroke-width="1"/><path d="M111.133,292.094c26-15.092,109.463-11.173,131.747-1.377-1.326-17.739-3.714-19.593-3.714-19.593s-61.5-18.093-124.953,2.912C111.561,283.568,112.086,282.244,111.133,292.094Z" transform="translate(-79.52 -215.523)" fill="#08f" stroke="#707070" stroke-width="1"/><g transform="translate(4.678 56.789)" clip-path="url(#b)"><path d="M110.6,292.57c25.947-15.092,109.666-11.65,131.906-1.853-1.324-17.739-3.707-19.593-3.707-19.593s-61.376-18.093-124.7,2.912C111.447,283.568,111.235,283.356,110.6,292.57Z" transform="translate(-83.823 -272.313)" fill="#2097ff" stroke="#707070" stroke-width="1"/></g></g></g><circle cx="20" cy="20" r="20" transform="translate(215 79)" fill="#512da8"/><path d="M13.5,0,27,24H0Z" transform="translate(244 86) rotate(90)" fill="#fff"/></g></svg>