<svg xmlns="http://www.w3.org/2000/svg" xmlns:xlink="http://www.w3.org/1999/xlink" width="393" height="552" viewBox="0 0 393 552"><defs><clipPath id="a"><rect width="393" height="552" transform="translate(-6 -3)" fill="none"/></clipPath></defs><g transform="translate(6 3)" clip-path="url(#a)"><g transform="translate(-147 -117)"><circle cx="329" cy="329" r="329" fill="#fff" opacity="0.25"/><circle cx="289" cy="289" r="289" transform="translate(39 39)" fill="#fff" opacity="0.57"/><path d="M230,0c57.923,0,162.806-24.309,203.431,11.118C481.486,53.024,460,160.548,460,229.5,460,356.249,357.025,459,230,459S0,356.249,0,229.5C0,160.676-4.048,59.406,44.032,17.348,84.512-18.061,171.949,0,230,0Z" transform="translate(98 98)" fill="#fff" opacity="0.77"/><circle cx="162" cy="162" r="162" transform="translate(166 156)" fill="#fff"/></g></g></svg>