<svg xmlns="http://www.w3.org/2000/svg" width="658" height="658" viewBox="0 0 658 658"><path d="M329,0C510.7,0,658,147.3,658,329S510.7,658,329,658,0,510.7,0,329,147.3,0,329,0Z" fill="#fff" opacity="0.25"/><circle cx="289" cy="289" r="289" transform="translate(40 40)" fill="#fff" opacity="0.57"/><path d="M230,0c57.923,0,162.806-24.309,203.431,11.118C481.486,53.024,460,160.548,460,229.5,460,356.249,357.025,459,230,459S0,356.249,0,229.5C0,160.676-4.048,59.406,44.032,17.348,84.512-18.061,171.949,0,230,0Z" transform="translate(99 99)" fill="#fff" opacity="0.77"/><circle cx="162" cy="162" r="162" transform="translate(167 157)" fill="#fff"/></svg>