<svg xmlns="http://www.w3.org/2000/svg" xmlns:xlink="http://www.w3.org/1999/xlink" width="245.5" height="237.581" viewBox="0 0 245.5 237.581"><defs><clipPath id="a"><path d="M276.667,285.667s-81.333-26-163.333,1.333,0,43.667,0,43.667L297,326.333v-20Z" fill="none" stroke="#707070" stroke-width="1"/></clipPath></defs><g transform="translate(0 -8.258)"><circle cx="31.675" cy="31.675" r="31.675" transform="translate(0 79.535)" fill="#965a50"/><circle cx="19.798" cy="19.798" r="19.798" transform="translate(11.877 91.412)" fill="#ebc9a0"/><circle cx="31.675" cy="31.675" r="31.675" transform="translate(182.149 79.535)" fill="#965a50"/><circle cx="19.798" cy="19.798" r="19.798" transform="translate(194.027 91.412)" fill="#ebc9a0"/><path d="M238.009,129.949a45.327,45.327,0,0,1-6.314-22.7h0a83.151,83.151,0,0,0-51.476-76.871v-14.2L160.42,24.1,156.46,8.258C146.017,11.74,137.108,19.046,130.4,26.142a83.142,83.142,0,0,0-65.01,81.108,45.327,45.327,0,0,1-6.314,22.7,68.843,68.843,0,0,0-9.524,34.716c0,44.831,44.32,81.173,98.992,81.173s98.992-36.343,98.992-81.173A68.855,68.855,0,0,0,238.009,129.949Z" transform="translate(-25.791)" fill="#af6e5a"/><path d="M93.105,178.854a90.713,90.713,0,0,1,9.524-40.5,59.685,59.685,0,0,0,6.314-26.482c0-40.294,21.083-74.78,51.063-89.426L156.46,8.258C146.016,11.74,137.107,19.046,130.4,26.142A83.142,83.142,0,0,0,65.388,107.25a45.323,45.323,0,0,1-6.314,22.7,68.843,68.843,0,0,0-9.524,34.716c0,36.185,28.881,66.827,68.766,77.305A92.067,92.067,0,0,1,93.105,178.854Z" transform="translate(-25.791 0)" fill="#965a50"/><path d="M182.926,315.968c32.8,0,59.4-21.274,59.4-47.516a38.674,38.674,0,0,0-3.277-15.529,20.105,20.105,0,0,1,2.911-21.044,35.616,35.616,0,0,0-51.314-49.171,11.538,11.538,0,0,1-15.429,0A35.616,35.616,0,0,0,123.9,231.878a20.106,20.106,0,0,1,2.911,21.044,38.686,38.686,0,0,0-3.277,15.529C123.531,294.694,150.123,315.968,182.926,315.968Z" transform="translate(-60.176 -85.968)" fill="#faebc8"/><path d="M123.532,268.89a40.4,40.4,0,0,0,8.4,24.274,90.464,90.464,0,0,1,5.081-68.406,59.685,59.685,0,0,0,6.314-26.482,112.159,112.159,0,0,1,2.622-24.013c-.141.02-.28.019-.421.041A35.617,35.617,0,0,0,123.9,232.317a20.105,20.105,0,0,1,2.911,21.044A38.682,38.682,0,0,0,123.532,268.89Z" transform="translate(-60.177 -86.407)" fill="#f5dcb4"/><g transform="translate(102.95 150.805)"><path d="M226.584,317.426a3.935,3.935,0,0,1-1.767-.418l-7.919-3.96a3.96,3.96,0,0,1,3.542-7.085l7.919,3.96a3.96,3.96,0,0,1-1.775,7.5Z" transform="translate(-214.707 -305.545)" fill="#5d5360"/><path d="M268.22,317.426a3.96,3.96,0,0,1-1.775-7.5l7.919-3.96a3.96,3.96,0,1,1,3.542,7.085l-7.919,3.96A3.945,3.945,0,0,1,268.22,317.426Z" transform="translate(-240.497 -305.545)" fill="#5d5360"/></g><path d="M177.985,363.355a3.984,3.984,0,0,0-3.955,4.5c2.458,17.558,19.109,31.137,39.284,31.137s36.826-13.58,39.284-31.137a3.984,3.984,0,0,0-3.955-4.5Z" transform="translate(-90.564 -184.831)" fill="#4b3f4e"/><path d="M208.417,405.347a43.069,43.069,0,0,0,45.631,0,23.726,23.726,0,0,0-45.631,0Z" transform="translate(-108.483 -197.726)" fill="#e6646e"/><path d="M168.782,242.428h0A11.879,11.879,0,0,1,156.9,230.549v-3.96a11.879,11.879,0,0,1,11.879-11.879h0a11.879,11.879,0,0,1,11.879,11.879v3.96A11.879,11.879,0,0,1,168.782,242.428Z" transform="translate(-81.669 -107.46)" fill="#4b3f4e"/><path d="M181.677,214.71v13.859a5.939,5.939,0,0,0,11.879,0v-1.98A11.878,11.878,0,0,0,181.677,214.71Z" transform="translate(-94.564 -107.46)" fill="#5d5360"/><circle cx="3.96" cy="3.96" r="3.96" transform="translate(83.154 111.212)" fill="#fff"/><path d="M317.428,242.428h0a11.879,11.879,0,0,1-11.879-11.879v-3.96a11.879,11.879,0,0,1,11.879-11.879h0a11.879,11.879,0,0,1,11.879,11.879v3.96A11.879,11.879,0,0,1,317.428,242.428Z" transform="translate(-159.041 -107.46)" fill="#4b3f4e"/><path d="M330.323,214.71v13.859a5.939,5.939,0,1,0,11.879,0v-1.98A11.879,11.879,0,0,0,330.323,214.71Z" transform="translate(-171.936 -107.46)" fill="#5d5360"/><circle cx="3.96" cy="3.96" r="3.96" transform="translate(154.426 111.212)" fill="#fff"/><path d="M251.7,424.782c1.339,0,2.655-.081,3.96-.2v-7.72a3.96,3.96,0,1,0-7.919,0v7.72C249.046,424.7,250.363,424.782,251.7,424.782Z" transform="translate(-128.952 -210.621)" fill="#ff8087"/></g><path d="M111.133,299.4c32.732-19,137.811-14.067,165.867-1.733C275.33,275.333,272.324,273,272.324,273s-77.425-22.778-157.313,3.667C111.671,288.667,112.333,287,111.133,299.4Z" transform="translate(-71.333 -203)" fill="#08f"/><g transform="translate(-71 -203)" clip-path="url(#a)"><path d="M110.6,300c32.667-19,138.067-14.667,166.067-2.333C275,275.333,272,273,272,273s-77.271-22.778-157,3.667C111.667,288.667,111.4,288.4,110.6,300Z" fill="#2097ff"/></g><path d="M93.105,178.854a90.713,90.713,0,0,1,9.524-40.5,59.685,59.685,0,0,0,6.314-26.482c0-40.294,21.083-74.78,51.063-89.426L156.46,8.258C146.016,11.74,137.107,19.046,130.4,26.142A83.142,83.142,0,0,0,65.388,107.25a45.323,45.323,0,0,1-6.314,22.7,68.843,68.843,0,0,0-9.524,34.716c0,36.185,28.881,66.827,68.766,77.305A92.067,92.067,0,0,1,93.105,178.854Z" transform="translate(-25.791 -8.258)" fill="#965a50" opacity="0.07"/></svg>